<svg width="70" height="52" viewBox="0 0 70 52" fill="none" xmlns="http://www.w3.org/2000/svg">
<ellipse cx="34.9053" cy="25.8908" rx="33.8404" ry="24.4658" fill="white"/>
<path fill-rule="evenodd" clip-rule="evenodd" d="M35 0.575012C54.3222 0.575012 70 11.9641 70 26C70 40.036 54.3222 51.425 35 51.425C15.6778 51.425 0 40.036 0 26C0 11.9641 15.6778 0.575012 35 0.575012ZM3.13556 19.3827C24.3746 20.5362 45.6254 20.5726 66.8644 19.3827C62.9124 9.31713 50.1335 1.94704 35 1.94704C19.8665 1.94704 7.08756 9.31713 3.13556 19.3827ZM66.9828 32.3259C45.6609 31.1846 24.3391 31.1117 3.01724 32.3259C6.85091 42.5372 19.7126 50.053 35 50.053C50.2874 50.053 63.1491 42.5372 66.9828 32.3259Z" fill="#102694"/>
<path d="M2.65042 20.7547C24.2207 21.6897 45.7792 21.7261 67.3496 20.7669C67.4127 20.9692 67.4718 21.1716 67.527 21.374C45.8384 22.2118 24.1616 22.1875 2.47294 21.374C2.52816 21.1635 2.58732 20.9571 2.65042 20.7547ZM67.598 30.3346C67.5507 30.5451 67.4955 30.7515 67.4324 30.9539C45.8147 30.0311 24.1853 29.9704 2.5676 30.9417C2.5045 30.7394 2.44928 30.537 2.40195 30.3346C24.1379 29.4726 45.8621 29.5211 67.598 30.3346Z" fill="white"/>
<path d="M32.1011 5.49246H37.8989V9.48713C38.1237 9.9728 38.2539 10.5192 38.2539 11.0898C38.2539 12.4255 37.5558 13.5789 36.5382 14.1739H33.4618C32.4442 13.5789 31.7461 12.4255 31.7461 11.0898C31.7461 10.5192 31.8762 9.9728 32.1011 9.48713V5.49246ZM27.8769 14.1132C27.2143 12.9475 25.5696 11.1627 22.6234 10.1064C21.3928 9.72996 19.2275 9.48713 16.6126 9.32928C15.7488 9.31714 14.6721 8.90432 16.7664 8.57649C17.8313 8.4065 21.452 7.93297 22.7535 7.64156C23.2268 7.54443 25.5815 6.99805 27.4273 8.23652C29.5216 9.64497 29.3205 10.6163 29.5216 12.2312C29.6636 13.0204 29.9949 15.8373 33.9706 16.4201C33.9114 16.8208 33.8522 17.2822 33.8522 17.2822C33.8759 17.3308 31.3201 17.2822 29.498 16.2501C28.5869 15.728 28.3739 14.9874 27.8769 14.1132ZM7.9158 16.7601L8.37726 15.9466C8.37726 15.9466 13.2403 16.2744 16.1274 14.186C16.6835 13.7853 18.2809 12.814 19.1447 12.8747C19.6416 12.899 21.2745 12.7411 23.8539 14.696C24.4692 15.1695 26.7174 17.2336 29.9239 17.61C31.261 17.78 34.432 17.95 34.432 17.95C34.3019 18.5328 34.29 18.5206 34.29 18.5449C34.29 18.5692 30.5865 18.4721 29.3915 18.4114C28.1964 18.3507 25.7116 17.9743 24.1734 17.4279C22.6234 16.8936 19.0145 16.6508 14.8495 16.7358C10.6846 16.8087 7.89213 16.7479 7.9158 16.7601ZM42.123 14.1132C42.7856 12.9475 44.4303 11.1627 47.3766 10.1064C48.6071 9.72996 50.7725 9.48713 53.3874 9.32928C54.2512 9.31714 55.3279 8.90432 53.2336 8.57649C52.1687 8.4065 48.548 7.93297 47.2464 7.64156C46.7731 7.54443 44.4185 6.99805 42.5727 8.23652C40.4783 9.64497 40.6795 10.6163 40.4783 12.2312C40.3364 13.0204 40.0051 15.8373 36.0294 16.4201C36.0886 16.8208 36.1477 17.2822 36.1477 17.2822C36.1241 17.3308 38.6798 17.2822 40.502 16.2501C41.4131 15.728 41.6261 14.9874 42.123 14.1132ZM62.0842 16.7601L61.6227 15.9466C61.6227 15.9466 56.7596 16.2744 53.8725 14.186C53.3164 13.7853 51.719 12.814 50.8553 12.8747C50.3583 12.899 48.7255 12.7411 46.146 14.696C45.5307 15.1695 43.2826 17.2336 40.076 17.61C38.739 17.78 35.5679 17.95 35.5679 17.95C35.6981 18.5328 35.7099 18.5206 35.7099 18.5449C35.7099 18.5692 39.4134 18.4721 40.6085 18.4114C41.8036 18.3507 44.2883 17.9743 45.8265 17.4279C47.3766 16.8936 50.9854 16.6508 55.1504 16.7358C59.3154 16.8087 62.1078 16.7479 62.0842 16.7601ZM32.1011 46.4712H37.8989V42.4765C38.1237 42.003 38.2539 41.4566 38.2539 40.8738C38.2539 39.5382 37.5558 38.3847 36.5382 37.7897H33.4618C32.4442 38.3847 31.7461 39.5382 31.7461 40.8738C31.7461 41.4566 31.8762 42.003 32.1011 42.4765V46.4712ZM27.8769 37.8626C27.2143 39.0161 25.5696 40.8009 22.6234 41.8573C21.3928 42.2458 19.2275 42.4765 16.6126 42.6343C15.7488 42.6465 14.6721 43.0593 16.7664 43.3871C17.8313 43.5571 21.452 44.0428 22.7535 44.3342C23.2268 44.4313 25.5815 44.9777 27.4273 43.7271C29.5216 42.3186 29.3205 41.3473 29.5216 39.7446C29.6636 38.9432 29.9949 36.1263 33.9706 35.5435C33.9114 35.155 33.8522 34.6814 33.8522 34.6814C33.8759 34.6329 31.3201 34.6814 29.498 35.7256C28.5869 36.2356 28.3739 36.9762 27.8769 37.8626ZM7.9158 35.2035L8.37726 36.0292C8.37726 36.0292 13.2403 35.7013 16.1274 37.7897C16.6835 38.1783 18.2809 39.1618 19.1447 39.0889C19.6416 39.0768 21.2745 39.2225 23.8539 37.2798C24.4692 36.7941 26.7174 34.7421 29.9239 34.3657C31.261 34.1958 34.432 34.0258 34.432 34.0258C34.3019 33.443 34.29 33.4551 34.29 33.4187C34.29 33.3944 30.5865 33.4915 29.3915 33.5644C28.1964 33.6251 25.7116 33.9893 24.1734 34.5357C22.6234 35.0821 19.0145 35.3128 14.8495 35.24C10.6846 35.155 7.89213 35.2157 7.9158 35.2035ZM42.123 37.8626C42.7856 39.0161 44.4303 40.8009 47.3766 41.8573C48.6071 42.2458 50.7725 42.4765 53.3874 42.6343C54.2512 42.6465 55.3279 43.0593 53.2336 43.3871C52.1687 43.5571 48.548 44.0428 47.2464 44.3342C46.7731 44.4313 44.4185 44.9777 42.5727 43.7271C40.4783 42.3186 40.6795 41.3473 40.4783 39.7446C40.3364 38.9432 40.0051 36.1263 36.0294 35.5435C36.0886 35.155 36.1477 34.6814 36.1477 34.6814C36.1241 34.6329 38.6798 34.6814 40.502 35.7256C41.4131 36.2356 41.6261 36.9762 42.123 37.8626ZM62.0842 35.2035L61.6227 36.0292C61.6227 36.0292 56.7596 35.7013 53.8725 37.7897C53.3164 38.1783 51.719 39.1618 50.8553 39.0889C50.3583 39.0768 48.7255 39.2225 46.146 37.2798C45.5307 36.7941 43.2826 34.7421 40.076 34.3657C38.739 34.1958 35.5679 34.0258 35.5679 34.0258C35.6981 33.443 35.7099 33.4551 35.7099 33.4187C35.7099 33.3944 39.4134 33.4915 40.6085 33.5644C41.8036 33.6251 44.2883 33.9893 45.8265 34.5357C47.3766 35.0821 50.9854 35.3128 55.1504 35.24C59.3154 35.155 62.1078 35.2157 62.0842 35.2035Z" fill="#FF2E17"/>
<path fill-rule="evenodd" clip-rule="evenodd" d="M9.90367 30.0432C9.90367 28.6469 9.90367 27.2506 9.89184 25.8543C9.89184 24.4701 9.84451 23.0738 9.84451 21.6775C10.3809 21.7261 10.9212 21.7746 11.4655 21.8232C12.0098 22.8431 12.5778 23.8509 13.1339 24.8465C13.6782 25.8179 14.2225 26.7771 14.7668 27.712C14.7668 26.7771 14.7668 25.83 14.7549 24.8951C14.7431 23.9602 14.7194 23.0252 14.7076 22.0903C15.1888 22.1308 15.6739 22.1672 16.163 22.1996C16.1748 23.4502 16.2103 24.7008 16.2103 25.9514C16.2221 27.202 16.2221 28.4526 16.2221 29.7032C15.6857 29.7275 15.1493 29.7559 14.6129 29.7882C14.0686 28.8776 13.5244 27.9427 12.9801 26.9835C12.4358 26.0202 11.8836 25.0327 11.3236 24.0209C11.3393 25.0084 11.3472 26 11.3472 26.9956C11.359 27.9791 11.3472 28.9747 11.3472 29.9582C10.866 29.9906 10.3849 30.0189 9.90367 30.0432ZM25.2029 24.6644C24.6191 24.6563 24.0433 24.6441 23.4753 24.628C23.3176 24.4418 23.1243 24.2799 22.8956 24.1423C22.6747 24.0047 22.438 23.8954 22.1856 23.8145C21.9332 23.7254 21.6729 23.6768 21.4047 23.6687C20.7184 23.6323 20.115 23.8144 19.6062 24.1908C19.4405 24.3244 19.2867 24.4944 19.1684 24.6887C19.0382 24.8829 18.9199 25.0893 18.8489 25.3079C18.7779 25.5386 18.7424 25.7571 18.7424 25.9757C18.7424 26.2671 18.8134 26.5706 18.9554 26.8742C19.0895 27.1656 19.267 27.4165 19.4879 27.627C19.7639 27.8698 20.0755 28.056 20.4226 28.1855C20.7776 28.3069 21.1325 28.3676 21.5112 28.3555C21.9687 28.3393 22.4104 28.2138 22.8364 27.9791C23.2624 27.7484 23.5818 27.457 23.783 27.0927C22.6944 27.1049 21.6058 27.1292 20.5291 27.1413C20.5291 26.7366 20.5291 26.3278 20.5291 25.915C22.2172 25.9312 23.9092 25.9433 25.6052 25.9514C25.6052 25.9919 25.6052 26.0364 25.6052 26.085C25.6052 26.7042 25.4158 27.2627 25.0372 27.7848C24.6704 28.3069 24.1498 28.7319 23.5227 29.0476C22.8837 29.3754 22.1974 29.5575 21.4638 29.594C20.9077 29.6304 20.3753 29.5575 19.8783 29.3997C19.3735 29.2459 18.9278 29.0071 18.5413 28.6833C18.1547 28.3514 17.851 27.9589 17.6302 27.5056C17.4054 27.0442 17.2989 26.5342 17.2989 26C17.2989 25.4738 17.4014 24.976 17.6065 24.5065C17.8195 24.0532 18.1114 23.6647 18.4821 23.3409C18.8607 23.0131 19.3104 22.7702 19.8192 22.6124C20.3319 22.4586 20.8565 22.3979 21.3929 22.4303C21.9371 22.4667 22.4459 22.5881 22.9547 22.7824C23.4635 22.9767 23.9013 23.2316 24.3036 23.5595C24.7059 23.8873 25.0017 24.2516 25.2029 24.6644ZM30.1843 22.7703C30.9179 22.7864 31.5923 22.9362 32.2076 23.2195C32.8347 23.4988 33.3317 23.8873 33.6985 24.3851C33.8878 24.628 34.0298 24.8829 34.1244 25.1622C34.2191 25.4293 34.2664 25.7086 34.2664 26C34.2664 26.2914 34.2191 26.5707 34.1244 26.8378C34.0416 27.117 33.8996 27.372 33.7221 27.6148C33.3553 28.1127 32.8584 28.5012 32.2431 28.7926C31.6199 29.084 30.9415 29.2419 30.2079 29.2661C29.6715 29.2742 29.1549 29.2014 28.6579 29.0476C28.1609 28.9019 27.7231 28.6712 27.3445 28.3798C26.9659 28.0803 26.674 27.7282 26.4689 27.3234C26.2559 26.9187 26.1494 26.4897 26.1494 26.0364C26.1494 25.7329 26.1968 25.4415 26.2796 25.1622C26.3624 24.8829 26.5044 24.6158 26.6701 24.3608C27.025 23.8509 27.518 23.4542 28.1491 23.1709C28.7762 22.8917 29.4507 22.7703 30.1843 22.7703ZM30.1843 23.8873C29.7031 23.8873 29.2653 23.9804 28.8709 24.1666C28.4686 24.3487 28.1609 24.6037 27.9361 24.9315C27.7113 25.2593 27.593 25.6236 27.593 26.0121C27.593 26.2954 27.664 26.5707 27.806 26.8378C27.948 27.0968 28.1373 27.3275 28.3739 27.5298C28.6263 27.7241 28.9064 27.8779 29.214 27.9912C29.5335 28.1005 29.8648 28.1491 30.2079 28.1369C30.6733 28.1288 31.1072 28.0277 31.5095 27.8334C31.9118 27.631 32.2313 27.368 32.4679 27.0442C32.7045 26.7042 32.8229 26.3521 32.8229 25.9878C32.8229 25.6114 32.6927 25.2593 32.4561 24.9436C32.2194 24.628 31.9 24.373 31.4977 24.1787C31.0954 23.9925 30.6576 23.8954 30.1843 23.8873ZM40.9753 27.3842C41.5354 27.3922 42.0955 27.4003 42.6555 27.4084C42.4662 27.7889 42.1822 28.1208 41.8036 28.4041C41.425 28.6874 40.999 28.8978 40.5257 29.0354C40.0445 29.1811 39.5515 29.2499 39.0467 29.2419C38.5024 29.2297 37.9818 29.1447 37.4848 28.9626C36.9957 28.7845 36.5658 28.5457 36.1951 28.2462C35.8283 27.9427 35.5325 27.5906 35.3195 27.202C35.1183 26.8135 35 26.3885 35 25.9636C34.9882 25.3929 35.1775 24.8586 35.5325 24.3608C35.8874 23.8509 36.3726 23.4502 36.9878 23.1466C37.6031 22.8552 38.2657 22.6853 38.9757 22.6731C39.4963 22.661 40.0051 22.7338 40.502 22.8795C40.9872 23.0252 41.425 23.2438 41.8036 23.523C42.1941 23.8144 42.4781 24.1544 42.6792 24.5551C42.1349 24.5632 41.5906 24.5672 41.0463 24.5672C40.8018 24.3244 40.4942 24.1342 40.1234 23.9966C39.7606 23.859 39.3819 23.7942 38.9875 23.8023C38.5142 23.8145 38.0883 23.9116 37.6978 24.118C37.3113 24.3204 37.0076 24.5875 36.7867 24.9194C36.5579 25.2512 36.4436 25.6074 36.4436 25.9878C36.4436 26.3521 36.5737 26.6921 36.7985 27.0199C37.0352 27.3356 37.3547 27.6027 37.7451 27.797C38.1474 27.9993 38.5734 28.1005 39.023 28.1005C39.7566 28.1127 40.4192 27.8698 40.9753 27.3842ZM46.572 29.3026C46.572 28.1855 46.572 27.0685 46.572 25.9514C46.572 24.8344 46.5602 23.7173 46.5602 22.6003C47.0335 22.5841 47.5147 22.5679 48.0037 22.5517C48.0037 23.0009 48.0037 23.4623 48.0037 23.9116C48.0037 24.3608 48.0156 24.8222 48.0156 25.2715C48.9385 25.2715 49.8654 25.2634 50.7962 25.2472C50.7883 24.7777 50.7843 24.3082 50.7843 23.8387C50.7843 23.3652 50.7843 22.8917 50.7843 22.4181C51.2655 22.3939 51.7506 22.3655 52.2397 22.3331C52.2397 23.5392 52.2397 24.7453 52.2397 25.9514C52.2397 27.1575 52.2397 28.3636 52.2397 29.5697C51.7546 29.5454 51.2695 29.509 50.7962 29.4847C50.7962 28.9909 50.7962 28.4972 50.7962 28.0034C50.7962 27.5096 50.7962 27.0158 50.7962 26.5221C49.8614 26.5099 48.9385 26.5099 48.0156 26.4978C48.0156 26.9754 48.0156 27.453 48.0156 27.9305C48.0156 28.4081 48.0156 28.8857 48.0156 29.3633C47.5344 29.339 47.0532 29.3188 46.572 29.3026ZM53.0916 29.6061C53.6359 28.4041 54.1802 27.1899 54.7127 25.9393C55.2569 24.6765 55.8012 23.3773 56.3337 22.0417C56.7123 22.0094 57.091 21.981 57.4696 21.9568C58.0139 23.2316 58.57 24.543 59.1143 25.8786C59.6586 27.2384 60.2029 28.6469 60.7471 30.0796C60.2186 30.0392 59.6901 30.0027 59.1616 29.9704C58.8776 29.2499 58.5937 28.5417 58.3097 27.8455C57.3868 27.8213 56.4757 27.797 55.5646 27.7848C55.2727 28.4243 54.9809 29.0638 54.689 29.7032C54.1526 29.6709 53.6202 29.6385 53.0916 29.6061ZM56.0852 26.4007C56.6413 26.4007 57.1856 26.3885 57.7536 26.3885C57.6116 25.9919 57.4696 25.5953 57.3276 25.1986C57.1935 24.802 57.0555 24.4094 56.9135 24.0209C56.7715 24.4256 56.6295 24.8263 56.4875 25.2229C56.3534 25.6114 56.2193 26.004 56.0852 26.4007Z" fill="white"/>
</svg>
